<svg xmlns="http://www.w3.org/2000/svg" width="489" height="489" viewBox="-14 -14 489 489" shape-rendering="crispEdges">
  <rect x="-14" y="-14" width="489" height="489" fill="#eef1f5"/>
  <path d="M 230 136 L 230 168 L 228 170 L 228 174 L 222 180 L 220 180 L 218 182 L 204 182 L 202 180 L 190 180 L 188 182 L 184 182 L 182 180 L 180 180 L 178 182 L 176 182 L 174 180 L 108 180 L 106 182 L 104 182 L 102 180 L 100 182 L 98 180 L 96 182 L 92 182 L 90 180 L 84 180 L 82 182 L 80 180 L 74 180 L 72 182 L 72 254 L 74 256 L 74 270 L 72 272 L 72 274 L 70 276 L 70 282 L 72 284 L 72 322 L 70 324 L 70 332 L 72 334 L 72 336 L 74 338 L 90 338 L 92 340 L 94 340 L 96 338 L 100 338 L 102 340 L 122 340 L 124 342 L 148 342 L 150 340 L 192 340 L 192 324 L 194 322 L 194 316 L 202 308 L 204 308 L 206 306 L 214 306 L 216 304 L 220 304 L 222 306 L 228 306 L 236 298 L 238 298 L 240 296 L 256 296 L 256 138 L 254 138 L 252 136 Z" fill="#bcd6f0" fill-rule="evenodd" stroke="#4a90d9" stroke-width="2.5" stroke-linejoin="miter"/>
  <path d="M 112 272 L 112 278 L 114 280 L 114 272 Z M 134 270 L 134 278 L 136 276 L 136 272 Z M 134 244 L 134 254 L 136 252 L 136 244 Z M 114 244 L 112 246 L 112 254 L 114 254 Z M 168 242 L 164 246 L 164 248 L 166 250 L 166 268 L 176 268 L 176 266 L 178 264 L 188 264 L 190 262 L 192 264 L 224 264 L 226 262 L 226 254 L 224 252 L 184 252 L 182 250 L 180 250 L 178 248 L 178 246 L 176 244 L 176 242 Z M 168 246 L 170 244 L 174 248 L 174 254 L 220 254 L 224 258 L 220 262 L 204 262 L 202 260 L 176 260 L 174 262 L 174 264 L 172 266 L 170 266 L 168 264 L 170 262 L 170 250 L 168 248 Z M 174 224 L 174 226 L 172 228 L 172 234 L 222 234 L 224 232 L 224 226 L 222 224 Z M 176 228 L 178 226 L 220 226 L 222 228 L 218 232 L 212 232 L 210 230 L 208 232 L 178 232 L 176 230 Z M 230 136 L 228 138 L 228 178 L 224 182 L 204 182 L 202 180 L 190 180 L 188 182 L 186 182 L 184 180 L 178 180 L 176 182 L 174 180 L 96 180 L 94 182 L 92 180 L 74 180 L 72 182 L 72 254 L 76 254 L 78 256 L 78 268 L 76 270 L 74 270 L 70 274 L 70 282 L 72 284 L 72 288 L 76 292 L 76 294 L 74 296 L 72 296 L 72 304 L 70 306 L 72 308 L 72 320 L 70 322 L 72 324 L 72 326 L 70 328 L 72 330 L 70 332 L 72 334 L 72 338 L 90 338 L 92 340 L 94 340 L 96 338 L 98 340 L 122 340 L 124 342 L 150 342 L 152 340 L 192 340 L 194 338 L 194 308 L 196 306 L 214 306 L 216 304 L 220 304 L 222 306 L 230 306 L 232 304 L 232 300 L 236 296 L 256 296 L 256 172 L 254 170 L 254 168 L 256 166 L 256 138 L 254 138 L 252 136 Z M 234 138 L 250 138 L 254 142 L 254 162 L 252 164 L 252 170 L 254 172 L 254 292 L 252 294 L 230 294 L 230 302 L 228 304 L 224 304 L 222 302 L 214 302 L 212 304 L 198 304 L 196 302 L 194 304 L 192 304 L 192 306 L 190 308 L 190 310 L 192 312 L 192 324 L 190 326 L 192 328 L 192 332 L 190 334 L 190 336 L 188 338 L 162 338 L 160 336 L 158 336 L 156 338 L 150 338 L 148 340 L 142 340 L 140 338 L 138 340 L 126 340 L 124 338 L 112 338 L 110 336 L 76 336 L 74 334 L 74 300 L 78 296 L 80 296 L 80 292 L 78 290 L 78 288 L 74 284 L 74 274 L 76 272 L 78 272 L 80 270 L 82 270 L 82 254 L 80 252 L 78 252 L 76 250 L 76 248 L 74 246 L 74 202 L 76 200 L 74 198 L 74 196 L 76 194 L 76 186 L 78 184 L 114 184 L 116 182 L 124 182 L 126 184 L 128 182 L 130 184 L 132 182 L 134 184 L 136 182 L 138 182 L 140 184 L 142 182 L 144 184 L 150 184 L 152 182 L 154 184 L 156 184 L 158 182 L 160 182 L 162 184 L 190 184 L 192 182 L 198 182 L 200 184 L 204 184 L 206 186 L 228 186 L 230 184 L 230 176 L 232 174 L 232 172 L 230 170 L 230 148 L 232 146 L 232 144 L 230 142 Z" fill="#4a90d9" fill-rule="evenodd"/>
</svg>
